<mxfile host="app.diagrams.net" modified="2023-09-02T03:02:19.836Z" agent="Mozilla/5.0 (X11; Linux x86_64) AppleWebKit/537.36 (KHTML, like Gecko) Chrome/116.0.0.0 Safari/537.36" etag="2wlX0fFuj0ztuzhQPy36" version="21.7.2" type="github">
  <diagram name="Page-1" id="bzfXUMVc7ejRhJ-3_QNN">
    <mxGraphModel dx="1151" dy="613" grid="1" gridSize="10" guides="1" tooltips="1" connect="1" arrows="1" fold="1" page="1" pageScale="1" pageWidth="850" pageHeight="1100" math="0" shadow="0">
      <root>
        <mxCell id="0" />
        <mxCell id="1" parent="0" />
        <mxCell id="GymRYK2iptReGK9iD2PO-1" value="&lt;font style=&quot;font-size: 24px;&quot;&gt;ITask&lt;/font&gt;" style="rounded=0;whiteSpace=wrap;html=1;" vertex="1" parent="1">
          <mxGeometry x="570" y="140" width="120" height="40" as="geometry" />
        </mxCell>
        <mxCell id="GymRYK2iptReGK9iD2PO-2" value="&lt;font style=&quot;font-size: 24px;&quot;&gt;IWorkFlow&lt;/font&gt;" style="rounded=0;whiteSpace=wrap;html=1;" vertex="1" parent="1">
          <mxGeometry x="100" y="250" width="160" height="40" as="geometry" />
        </mxCell>
        <mxCell id="GymRYK2iptReGK9iD2PO-3" value="" style="rounded=0;whiteSpace=wrap;html=1;" vertex="1" parent="1">
          <mxGeometry x="200" y="380" width="120" height="60" as="geometry" />
        </mxCell>
        <mxCell id="GymRYK2iptReGK9iD2PO-4" value="" style="rounded=0;whiteSpace=wrap;html=1;" vertex="1" parent="1">
          <mxGeometry x="360" y="270" width="120" height="60" as="geometry" />
        </mxCell>
      </root>
    </mxGraphModel>
  </diagram>
</mxfile>
